<mxfile host="Electron" modified="2024-10-14T08:31:32.279Z" agent="Mozilla/5.0 (Windows NT 10.0; Win64; x64) AppleWebKit/537.36 (KHTML, like Gecko) draw.io/21.7.5 Chrome/114.0.5735.289 Electron/25.8.1 Safari/537.36" etag="Cj3vkfDNOanD2Cmdsdlp" version="21.7.5" type="device">
  <diagram name="PÃ¡gina-1" id="SVVzw4PeuiUoznI4izK4">
    <mxGraphModel dx="1418" dy="820" grid="1" gridSize="10" guides="1" tooltips="1" connect="1" arrows="1" fold="1" page="1" pageScale="1" pageWidth="827" pageHeight="1169" math="0" shadow="0">
      <root>
        <mxCell id="0" />
        <mxCell id="1" parent="0" />
        <mxCell id="kPdPQRalSSpxtt4sQFqd-9" value="" style="edgeStyle=orthogonalEdgeStyle;rounded=0;orthogonalLoop=1;jettySize=auto;html=1;" edge="1" parent="1" source="kPdPQRalSSpxtt4sQFqd-1" target="kPdPQRalSSpxtt4sQFqd-2">
          <mxGeometry relative="1" as="geometry" />
        </mxCell>
        <mxCell id="kPdPQRalSSpxtt4sQFqd-1" value="Inicio Act13T2" style="rounded=1;whiteSpace=wrap;html=1;" vertex="1" parent="1">
          <mxGeometry x="354" y="40" width="120" height="60" as="geometry" />
        </mxCell>
        <mxCell id="kPdPQRalSSpxtt4sQFqd-10" value="" style="edgeStyle=orthogonalEdgeStyle;rounded=0;orthogonalLoop=1;jettySize=auto;html=1;" edge="1" parent="1" source="kPdPQRalSSpxtt4sQFqd-2" target="kPdPQRalSSpxtt4sQFqd-5">
          <mxGeometry relative="1" as="geometry" />
        </mxCell>
        <mxCell id="kPdPQRalSSpxtt4sQFqd-2" value="Leer userNum" style="shape=parallelogram;perimeter=parallelogramPerimeter;whiteSpace=wrap;html=1;fixedSize=1;" vertex="1" parent="1">
          <mxGeometry x="354" y="140" width="120" height="60" as="geometry" />
        </mxCell>
        <mxCell id="kPdPQRalSSpxtt4sQFqd-11" value="" style="edgeStyle=orthogonalEdgeStyle;rounded=0;orthogonalLoop=1;jettySize=auto;html=1;" edge="1" parent="1" source="kPdPQRalSSpxtt4sQFqd-5" target="kPdPQRalSSpxtt4sQFqd-6">
          <mxGeometry relative="1" as="geometry" />
        </mxCell>
        <mxCell id="kPdPQRalSSpxtt4sQFqd-5" value="contador = 1" style="rounded=0;whiteSpace=wrap;html=1;" vertex="1" parent="1">
          <mxGeometry x="354" y="230" width="120" height="60" as="geometry" />
        </mxCell>
        <mxCell id="kPdPQRalSSpxtt4sQFqd-12" value="" style="edgeStyle=orthogonalEdgeStyle;rounded=0;orthogonalLoop=1;jettySize=auto;html=1;" edge="1" parent="1" source="kPdPQRalSSpxtt4sQFqd-6" target="kPdPQRalSSpxtt4sQFqd-8">
          <mxGeometry relative="1" as="geometry" />
        </mxCell>
        <mxCell id="kPdPQRalSSpxtt4sQFqd-17" value="" style="edgeStyle=orthogonalEdgeStyle;rounded=0;orthogonalLoop=1;jettySize=auto;html=1;" edge="1" parent="1" source="kPdPQRalSSpxtt4sQFqd-6" target="kPdPQRalSSpxtt4sQFqd-16">
          <mxGeometry relative="1" as="geometry" />
        </mxCell>
        <mxCell id="kPdPQRalSSpxtt4sQFqd-6" value="contador &amp;lt;= num?" style="rhombus;whiteSpace=wrap;html=1;" vertex="1" parent="1">
          <mxGeometry x="367" y="320" width="94" height="80" as="geometry" />
        </mxCell>
        <mxCell id="kPdPQRalSSpxtt4sQFqd-7" value="contador++" style="rounded=0;whiteSpace=wrap;html=1;" vertex="1" parent="1">
          <mxGeometry x="354" y="524.5" width="120" height="60" as="geometry" />
        </mxCell>
        <mxCell id="kPdPQRalSSpxtt4sQFqd-13" value="" style="edgeStyle=orthogonalEdgeStyle;rounded=0;orthogonalLoop=1;jettySize=auto;html=1;" edge="1" parent="1" source="kPdPQRalSSpxtt4sQFqd-8" target="kPdPQRalSSpxtt4sQFqd-7">
          <mxGeometry relative="1" as="geometry" />
        </mxCell>
        <mxCell id="kPdPQRalSSpxtt4sQFqd-8" value="Escribir contador" style="shape=parallelogram;perimeter=parallelogramPerimeter;whiteSpace=wrap;html=1;fixedSize=1;" vertex="1" parent="1">
          <mxGeometry x="354" y="430" width="120" height="60" as="geometry" />
        </mxCell>
        <mxCell id="kPdPQRalSSpxtt4sQFqd-14" value="" style="endArrow=classic;html=1;rounded=0;exitX=0.5;exitY=1;exitDx=0;exitDy=0;" edge="1" parent="1" source="kPdPQRalSSpxtt4sQFqd-7">
          <mxGeometry width="50" height="50" relative="1" as="geometry">
            <mxPoint x="390" y="350" as="sourcePoint" />
            <mxPoint x="414" y="300" as="targetPoint" />
            <Array as="points">
              <mxPoint x="414" y="630" />
              <mxPoint x="540" y="630" />
              <mxPoint x="540" y="300" />
            </Array>
          </mxGeometry>
        </mxCell>
        <mxCell id="kPdPQRalSSpxtt4sQFqd-16" value="Fin Act13T2" style="rounded=1;whiteSpace=wrap;html=1;" vertex="1" parent="1">
          <mxGeometry x="190" y="330" width="120" height="60" as="geometry" />
        </mxCell>
        <mxCell id="kPdPQRalSSpxtt4sQFqd-18" value="NO" style="text;html=1;align=center;verticalAlign=middle;resizable=0;points=[];autosize=1;strokeColor=none;fillColor=none;" vertex="1" parent="1">
          <mxGeometry x="305" y="330" width="40" height="30" as="geometry" />
        </mxCell>
        <mxCell id="kPdPQRalSSpxtt4sQFqd-19" value="Si" style="text;html=1;align=center;verticalAlign=middle;resizable=0;points=[];autosize=1;strokeColor=none;fillColor=none;" vertex="1" parent="1">
          <mxGeometry x="384" y="390" width="30" height="30" as="geometry" />
        </mxCell>
      </root>
    </mxGraphModel>
  </diagram>
</mxfile>
